<svg height="48" width="48" xmlns="http://www.w3.org/2000/svg"><linearGradient id="a" x1="50%" x2="50%" y1="0%" y2="85.826%"><stop offset="0" stop-color="#ffc452"/><stop offset="1" stop-color="#ffb526"/></linearGradient><g fill="none" fill-rule="evenodd"><path d="M37.5 14.509L35.337 16l.68-2.624L34 11.674l2.584-.131L37.5 9l.916 2.543 2.584.131-2.017 1.702.68 2.624z" fill="#ffb526"/><path d="M25.932 18.167c-3.419.465-6.94-1.07-8.783-4.176-1.878-3.159-1.459-6.996.737-9.69.654-.801.491-1.462-.547-1.711a13.008 13.008 0 0 0-3.125-.109 13.038 13.038 0 0 0-2.588.501c-.042.014-.086.023-.129.036-.37.114-.735.254-1.097.404-.071.03-.144.053-.215.084-.421.182-.836.388-1.243.62-6.12 3.496-8.19 11.195-4.624 17.195 3.565 6.001 11.417 8.03 17.538 4.535a12.55 12.55 0 0 0 1.163-.755c.063-.045.12-.095.181-.143.312-.235.615-.477.899-.736.033-.03.063-.063.094-.092.31-.287.606-.585.88-.897.311-.355.587-.704.842-1.063a12.453 12.453 0 0 0 1.429-2.68c.301-1.028-.219-1.498-1.282-1.316a.311.311 0 0 1-.13-.007z" fill="url(#a)" transform="rotate(-11 66.734 -32.427)"/></g></svg>