<svg height="48" width="48" xmlns="http://www.w3.org/2000/svg"><g fill="none" fill-rule="evenodd"><path d="M26.5 22.5a.5.5 0 0 1 .183.683l-6.5 11.258a.5.5 0 0 1-.866-.5l6.5-11.258a.5.5 0 0 1 .683-.183zm4 0a.5.5 0 0 1 .183.683l-6.5 11.258a.5.5 0 0 1-.866-.5l6.5-11.258a.5.5 0 0 1 .683-.183zm-12 0a.5.5 0 0 1 .183.683l-6.5 11.258a.5.5 0 0 1-.866-.5l6.5-11.258a.5.5 0 0 1 .683-.183zm15.866 0a.5.5 0 0 1 .183.683l-6.5 11.258a.5.5 0 0 1-.866-.5l6.5-11.258a.5.5 0 0 1 .683-.183zm4 0a.5.5 0 0 1 .183.683l-6.5 11.258a.5.5 0 0 1-.866-.5l6.5-11.258a.5.5 0 0 1 .683-.183zm-15.866 0a.5.5 0 0 1 .183.683l-6.5 11.258a.5.5 0 0 1-.866-.5l6.5-11.258a.5.5 0 0 1 .683-.183zM10 38a1 1 0 1 1 0-2 1 1 0 0 1 0 2zm8 0a1 1 0 1 1 0-2 1 1 0 0 1 0 2zm8 0a1 1 0 1 1 0-2 1 1 0 0 1 0 2zm-12 0a1 1 0 1 1 0-2 1 1 0 0 1 0 2zm8 0a1 1 0 1 1 0-2 1 1 0 0 1 0 2zm8 0a1 1 0 1 1 0-2 1 1 0 0 1 0 2z" fill="#66abff"/><path d="M33.851 17c-.497-1.872-2.188-3.25-4.196-3.25-.412 0-.81.058-1.188.166C27.098 11.015 24.09 9 20.6 9c-4.735 0-8.581 3.707-8.654 8.306A7 7 0 0 0 14 31h20a7 7 0 0 0 0-14z" fill="#ddd"/></g></svg>