<svg height="48" width="48" xmlns="http://www.w3.org/2000/svg"><g fill="none" fill-rule="evenodd"><path d="M33.851 17c-.497-1.872-2.188-3.25-4.196-3.25-.412 0-.81.058-1.188.166C27.098 11.015 24.09 9 20.6 9c-4.735 0-8.581 3.707-8.654 8.306A7 7 0 0 0 14 31h20a7 7 0 0 0 0-14z" fill="#ddd"/><g fill="#66abff"><path d="M34.1 33.041c-.56-.324-3.037-1.32-4.812-2.042 1.775-.722 4.256-1.718 4.816-2.043a1.804 1.804 0 0 0 .656-2.459 1.786 1.786 0 0 0-2.448-.658c-.558.324-2.658 1.984-4.167 3.168.264-1.907.644-4.558.644-5.207 0-.994-.801-1.8-1.791-1.8-.989 0-1.792.806-1.792 1.8 0 .649.381 3.3.646 5.207-1.51-1.184-3.604-2.842-4.163-3.166a1.787 1.787 0 0 0-2.448.659 1.804 1.804 0 0 0 .656 2.46c.56.324 3.032 1.317 4.808 2.04-1.776.72-4.246 1.715-4.805 2.039a1.804 1.804 0 0 0-.655 2.458 1.785 1.785 0 0 0 2.446.66c.56-.324 2.651-1.98 4.161-3.163-.265 1.906-.646 4.558-.646 5.206 0 .995.803 1.8 1.792 1.8.99 0 1.791-.805 1.791-1.8 0-.648-.38-3.3-.644-5.206 1.509 1.184 3.604 2.84 4.163 3.166a1.787 1.787 0 0 0 2.447-.66 1.804 1.804 0 0 0-.655-2.459M15.662 36.294c-.21-.126-1.138-.513-1.804-.794.666-.281 1.596-.669 1.806-.795.321-.193.431-.621.246-.956s-.596-.45-.918-.256c-.21.126-.997.771-1.563 1.232.1-.742.242-1.773.242-2.025 0-.386-.3-.7-.672-.7-.37 0-.672.314-.672.7 0 .252.143 1.283.243 2.025-.567-.46-1.352-1.105-1.562-1.231a.657.657 0 0 0-.918.256.716.716 0 0 0 .246.957c.21.126 1.138.512 1.803.793-.665.28-1.592.667-1.802.793a.716.716 0 0 0-.245.956c.185.335.596.45.917.256.21-.126.994-.77 1.56-1.23-.099.742-.242 1.773-.242 2.025 0 .387.301.7.672.7a.686.686 0 0 0 .672-.7c0-.252-.143-1.283-.242-2.024.566.46 1.352 1.104 1.562 1.23a.657.657 0 0 0 .917-.256.716.716 0 0 0-.246-.956"/></g></g></svg>