<svg height="48" width="48" xmlns="http://www.w3.org/2000/svg"><g fill="none" fill-rule="evenodd"><path d="M33.851 17c-.497-1.872-2.188-3.25-4.196-3.25-.412 0-.81.058-1.188.166C27.098 11.015 24.09 9 20.6 9c-4.735 0-8.581 3.707-8.654 8.306A7 7 0 0 0 14 31h20a7 7 0 0 0 0-14z" fill="#ddd"/><path d="M30 30.873c0-.334-.31-.604-.694-.604h-3.42c-.382 0-.735-.27-.735-.602l1.137-5.903-.011-.004c.016-.051.036-.1.036-.156 0-.333-.31-.604-.694-.604a.709.709 0 0 0-.57.28l-.014-.004-6.96 8.508.005.007a.529.529 0 0 0-.08.267c0 .334.311.604.694.604l3.323.018c.384 0 .715.288.715.621l-1.225 6.044h.003c-.002.018-.012.034-.012.051 0 .334.311.604.694.604a.703.703 0 0 0 .593-.31l.004.002 7.06-8.443-.006-.01a.545.545 0 0 0 .157-.366" fill="#ffb526"/></g></svg>