<svg height="48" width="48" xmlns="http://www.w3.org/2000/svg"><g fill="none" fill-rule="evenodd"><path d="M37.75 14.458c0 2.46-6.212 4.457-13.875 4.457S10 16.919 10 14.458C10 11.996 16.212 10 23.875 10s9.692 1.225 10.62 1.98c.927.755-1.82 2.969-10.252 2.775m10.728 5.423c0 1.97-4.968 3.564-11.096 3.564S12.78 22.147 12.78 20.178M32.19 25.9c0 1.476-3.723 2.671-8.315 2.671-4.593 0-8.316-1.195-8.316-2.67m13.852 5.72c0 .983-2.479 1.779-5.536 1.779-3.058 0-5.536-.796-5.536-1.778m8.292 5.72c0 .49-1.233.886-2.756.886-1.522 0-2.756-.396-2.756-.885" stroke="#73b0ff" stroke-linecap="round" stroke-width="2.25"/><g fill="#73b0ff" transform="translate(10 10)"><circle cx="4.125" cy="22.125" r="1.125"/><circle cx="10.125" cy="4.125" r="1.125"/><circle cx="27.125" cy="15.125" r="1.125"/></g></g></svg>